<?xml version="1.0" encoding="UTF-8"?><svg id="Layer_3" xmlns="http://www.w3.org/2000/svg" viewBox="0 0 136.62 40.62"><defs><style>.cls-1{fill:#fff;}</style></defs><path class="cls-1" d="M3.75,34.71v-5.03c2.87,1.32,5.32,1.98,7.37,1.98,1.43,0,2.55-.35,3.38-1.05,.82-.7,1.23-1.65,1.23-2.85,0-.95-.26-1.75-.77-2.41-.52-.65-1.49-1.43-2.94-2.33l-1.78-1.09c-2.39-1.48-4.08-2.89-5.06-4.25s-1.48-2.94-1.48-4.74c0-2.42,.81-4.36,2.42-5.82,1.61-1.47,3.75-2.2,6.4-2.2,2.13,0,4.52,.34,7.19,1.01v4.69c-2.73-1.12-4.88-1.68-6.47-1.68-1.22,0-2.21,.3-2.94,.9-.74,.6-1.11,1.39-1.11,2.37,0,.81,.26,1.51,.77,2.12,.52,.61,1.49,1.35,2.92,2.24l1.91,1.17c2.57,1.58,4.34,3.04,5.31,4.38s1.46,2.96,1.46,4.87c0,2.72-.92,4.85-2.76,6.4-1.84,1.55-4.37,2.32-7.6,2.32-2.14,0-4.62-.33-7.46-.99Zm31.12,.65c-2.86,0-5.18-.96-6.98-2.89-1.79-1.93-2.69-4.5-2.69-7.71v-.56c0-2.15,.38-4.08,1.13-5.77,.76-1.7,1.83-3,3.21-3.92s2.97-1.38,4.75-1.38c2.67,0,4.76,.92,6.29,2.77s2.3,4.47,2.3,7.86v2.34h-12.41c.17,1.4,.68,2.52,1.52,3.37s1.92,1.27,3.21,1.27c2.01,0,3.57-.8,4.7-2.4l2.56,3.15c-.78,1.22-1.84,2.16-3.17,2.84s-2.81,1.02-4.43,1.02Zm-.59-17.61c-1.03,0-1.87,.39-2.51,1.15-.64,.77-1.05,1.87-1.23,3.3h7.24v-.46c-.02-1.27-.34-2.26-.94-2.96s-1.45-1.04-2.56-1.04Zm13.82,17.22V5.65h5.55V30.81h12.01v4.16h-17.56Zm43.48,.2s-1.8-.2-3.09-.2c-4.39,0-7.52,.2-7.52,.2l-.18-2.96,2.18-.36-.19-2.11-.52-2.03h-6.97l-.63,2.6-.22,1.54,2.14,.49-.18,2.84s-2.18-.2-3.91-.2c-3.13,0-5.12,.2-5.12,.2l-.19-2.96,1.66-.28,1.55-3.49,6.97-22.07,4.13-.45,7.37,23.85,.85,2.19,2.07,.36-.19,2.84Zm-15.3-10.79l5.01-.08-2.36-9.53-2.65,9.62Zm29.17-14.93l-2.32,.24c-.11,.61-.33,2.47-.33,3.29v14.16c0,2.03,.26,4.14,.33,4.71l2.25,.24-.18,3.08s-2.91-.2-7.04-.2c-1.77,0-3.54,.2-3.54,.2l-.18-2.84,2.32-.49c.04-.41,.33-2.68,.33-3.49V14.2c0-2.03-.26-3.85-.33-4.5l-2.28-.49,.18-3.04s1.77,.2,3.54,.2c4.13,0,7.08-.2,7.08-.2l.19,3.29Zm14.89,25.72s-3.32-.2-7.45-.2c-1.77,0-3.5,.2-3.5,.2l-.19-2.84,1.44-.32c-.66-1.18-1.66-2.92-2.17-3.69-.77-.97-5.53-7.67-5.53-7.67l5.97-9.09,1.03-2.11-1.14-.24,.19-3.04s1.8,.2,3.57,.2c4.09,0,6.12-.2,6.12-.2l.18,3.29-2.14,.24c-.92,.97-2.03,2.19-2.8,3.12l-4.75,7.14c2.51,3.25,5.09,6.53,7.56,9.78,.37,.49,1.29,1.38,2.03,2.11l1.77,.24-.19,3.08Zm12.4,0s-2.43-.2-6.6-.2c-1.73,0-3.69,.2-3.69,.2l-.18-2.84,2.43-.49s.33-2.68,.33-3.49v-6.57c0-.81-.37-3.53-.37-3.53l-2.76-.69,.33-3s2.76,.37,4.31,.37l3.24-.08,.77,.77s-.37,5.35-.37,7.38v4.14c0,2.03,.33,4.71,.33,4.71l2.4,.24-.19,3.08Zm-2.32-26.77c0,1.91-1.03,3.2-2.91,3.2s-2.91-1.3-2.91-3.2,1.03-3.25,2.91-3.25,2.91,1.22,2.91,3.25Z"/></svg>